<svg xmlns="http://www.w3.org/2000/svg" width="662.52" height="118.13" viewBox="0 0 662.52 118.13"><path d="M189.49,2c16,0,28.31,7.79,28.31,21.66,0,14.23-13.25,23.26-27.2,23.26a20.55,20.55,0,0,1-9-1.73c10.61-.63,22.09-7.19,22.09-19,0-10.89-7.65-15.23-17.53-15.23a50.38,50.38,0,0,0-8.64.74V67.48c0,6.94-.12,11.89,6.42,15.59v.39H159.32v-.39c6.32-2.21,5.57-11.37,5.57-16.94V19.47c0-5.57.75-14.6-5.45-17.09V2Z"></path><path d="M247.44,2c16.61,0,25.64,8.62,25.64,19.88,0,10.89-9.53,19.44-19.69,21.79L271.22,66a86.64,86.64,0,0,0,20,17.31H279.89c-6.56,0-10.64-1.6-14.36-6.18L250.42,58.49,239,41c9.91-1.49,21.44-6.07,21.44-17.7,0-8.91-7.68-14.1-16-13.74a67.45,67.45,0,0,0-8.43,1V66.13c0,5.68-.74,14.73,5.58,16.94v.39H218v-.39c6.31-2.21,5.45-11.37,5.45-16.94V19.47c0-5.7.86-14.73-5.45-17.09V2Z"></path><path d="M319.79,8.92c19.57,0,31.09,17.43,31.09,35.46,0,18.4-12,32.11-30.84,32.11-19.46,0-31.73-17.78-31.73-35.08C288.31,22.76,300.58,8.92,319.79,8.92ZM320.65,0c-26-.61-46.46,19-46.46,42.51,0,25.33,20.69,42.89,45.22,42.89S365,67.11,365,41.91C365,19.67,346.67-.1,320.65,0Z"></path><path d="M417.08,16.72c-4.83-4.95-12.48-7.8-19.39-7.8s-15.91,2.73-15.91,11.28c0,16.94,42.48,16.7,42.48,39.58,0,13.24-13.87,25.63-33.11,25.63A64.07,64.07,0,0,1,369,81.69l-3.59-15.47a42.87,42.87,0,0,0,27.08,10.27c7,0,17.64-4.21,17.64-12.87,0-19.3-42.49-15.83-42.49-42.06,0-15.6,16-21.55,31-21.55a62.33,62.33,0,0,1,18.4,2.73Z"></path><path d="M458.34,74.54A30.44,30.44,0,0,0,480.24,67h.37l-6.43,16.47H423.31v-.39c6.31-2.21,5.57-11.37,5.57-16.94V19.47c0-5.7.74-14.73-5.57-17.09V2H447v.37c-6.31,2.36-5.45,11.52-5.45,17.09v54Z"></path><path d="M484.32,19.47c0-5.7.86-14.73-5.45-17.09V2h23.52v.37c-6.18,2.36-5.45,11.52-5.45,17.09V66.13c0,5.57-.73,14.6,5.45,16.94v.39H478.87v-.39c6.2-2.21,5.45-11.37,5.45-16.94Z"></path><path d="M527.67,12.25a49,49,0,0,1,11.16-1.36c20.72,0,32.87,10.9,32.87,32.57,0,21.42-16.49,31.08-35,31.08a44.58,44.58,0,0,1-9.05-.87ZM515,65.63c0,7.3.75,13.24-5.45,17.44v.39h29.73c27.79,0,46.5-17.09,46.5-41.46,0-24.63-17.59-40-45.88-40H509.59v.37C515.91,4.24,515,13.28,515,19Z"></path><path d="M605.26,73.11,621,74.6a30.76,30.76,0,0,0,22.88-7.3h.38l-5.58,16.21h-51.6v-.37c6.31-2.23,5.58-11.38,5.58-17V19.53c0-5.68.73-14.73-5.58-17.07V2.08h39.6c2.11,0,4.21.25,5.83-.61h.37V15.94h-.37c-3.84-4.46-8.92-5-14.61-5a70.13,70.13,0,0,0-12.63.88v23H620c2,0,4,0,5.44-.73h.37V47.26h-.37c-2-3.59-7.18-3.48-11-3.48h-9.16Z"></path><path d="M171.37,111.17c0,2,0,3.35,1.81,4.43v.11H166.3v-.11c1.74-.67,1.53-3.21,1.53-4.77V95.27h-3.07a6,6,0,0,0-4.14,1.4h-.11l1.22-4.15h.11a6.17,6.17,0,0,0,1.32.25H177a3.85,3.85,0,0,0,1.6-.25h.11l-1.12,4.15h-.11c-.45-1.22-1.84-1.4-3-1.4h-3.14Z"></path><path d="M199.05,112.79l4.43.42a8.63,8.63,0,0,0,6.45-2h.1l-1.57,4.56H194v-.1c1.77-.63,1.56-3.21,1.56-4.78V97.7c0-1.6.21-4.15-1.56-4.8v-.12h11.13a3.62,3.62,0,0,0,1.64-.16h.11v4.07h-.11c-1.08-1.26-2.51-1.4-4.12-1.4a19.53,19.53,0,0,0-3.55.25V102h4.15a3.39,3.39,0,0,0,1.53-.22h.11v3.69h-.11c-.55-1-2-1-3.09-1h-2.59Z"></path><path d="M244.52,97.1a12.13,12.13,0,0,0-6.45-2c-4.81,0-8.16,3.52-8.16,8.57s3.49,9.67,8.85,9.67a15.38,15.38,0,0,0,7.43-2.18h.1l-1.77,4a12.51,12.51,0,0,1-5.27,1c-8.22,0-13.31-4.6-13.31-12,0-7.21,5.09-12,12.24-12a28.23,28.23,0,0,1,6.34.87Z"></path><path d="M267,104.53v6.31c0,1.57-.21,4.11,1.54,4.78v.1h-6.62v-.1c1.75-.67,1.54-3.21,1.54-4.78V97.68c0-1.58.24-4.13-1.54-4.78v-.12h6.62v.12c-1.75.65-1.54,3.2-1.54,4.8V102h12.63V97.7c0-1.6.25-4.15-1.53-4.8v-.12h6.64v.12c-1.78.65-1.57,3.2-1.57,4.78v13.16c0,1.57-.21,4.11,1.57,4.78v.1H278.1v-.1c1.78-.67,1.53-3.21,1.53-4.78v-6.31Z"></path><path d="M306,111.17c0,2,0,3.34,1.82,4.42v.12h-6.17v-.12c1.85-1.08,1.85-2.47,1.85-4.42V97.26c0-2,0-3.34-1.82-4.4v-.1h5.09v0a2.09,2.09,0,0,0,.52.86l.49.7,12.77,16.11V97.26c0-2,0-3.34-1.82-4.4v-.1h6.13v.1c-1.81,1.06-1.81,2.45-1.81,4.4v19.57a9.7,9.7,0,0,1-5.08-4L306,97.68Z"></path><path d="M353.91,94.67c5.51,0,8.74,4.92,8.74,10s-3.37,9.06-8.67,9.06c-5.47,0-8.92-5-8.92-9.9C345.06,98.58,348.51,94.67,353.91,94.67Zm.25-2.5c-7.32-.17-13.07,5.35-13.07,12,0,7.15,5.82,12.1,12.72,12.1s12.82-5.16,12.82-12.27A12,12,0,0,0,354.16,92.17Z"></path><path d="M393.44,113.2a8.7,8.7,0,0,0,6.17-2.14h.1l-1.81,4.65H383.58v-.12c1.78-.62,1.57-3.2,1.57-4.76V97.68c0-1.61.21-4.16-1.57-4.82v-.1h6.65v.1c-1.77.66-1.53,3.25-1.53,4.82v15.2Z"></path><path d="M428.52,94.67c5.5,0,8.75,4.92,8.75,10s-3.39,9.06-8.69,9.06c-5.46,0-8.91-5-8.91-9.9C419.67,98.58,423.12,94.67,428.52,94.67Zm.24-2.5c-7.32-.17-13.07,5.35-13.07,12,0,7.15,5.82,12.1,12.72,12.1s12.83-5.16,12.83-12.27C441.24,97.7,436.08,92.13,428.76,92.17Z"></path><path d="M477.35,96.81h-.12c-1.42-1.59-4.08-2.08-6.22-2.08-5.45,0-9.62,3.55-9.62,9.15a9.82,9.82,0,0,0,10,9.85,18,18,0,0,0,4.87-.65v-5c0-1.59,0-3.31-1.62-3.92V104H480v.12a4.16,4.16,0,0,0-.17,1.49v8a3.93,3.93,0,0,0,.17,1.56,45.1,45.1,0,0,1-8.34,1c-8.95,0-14.22-4.88-14.22-11.87,0-7.49,6-12.16,14.43-12.16a26.17,26.17,0,0,1,5.5.6Z"></path><path d="M506.6,111.17c0,2.09,0,3.13,1.78,4.42v.12H501.6v-.12c1.7-.86,1.46-3.13,1.46-4.76v-5.16l-5.79-9.32A8.25,8.25,0,0,0,494,92.76h3.18a2.92,2.92,0,0,1,2.6,1l5.59,9.1,4.31-6.49c.58-.88,1.39-2.55-.56-3.49v-.1h6.09l-8.57,12.91Z"></path><path d="M555.75,97.68c0-1.61.25-4.16-1.53-4.82v-.1h6.61v.1c-1.74.66-1.53,3.25-1.53,4.82v13.15c0,1.56-.21,4.1,1.53,4.76v.12h-6.61v-.12c1.74-.62,1.53-3.2,1.53-4.76Z"></path><path d="M582.13,111.17c0,2,0,3.34,1.82,4.42v.12h-6.17v-.12c1.85-1.08,1.85-2.47,1.85-4.42V97.26c0-2,0-3.34-1.82-4.4v-.1h5.09v0a2,2,0,0,0,.52.86l.49.7,12.77,16.11V97.26c0-2,0-3.34-1.82-4.4v-.1H601v.1c-1.8,1.06-1.8,2.45-1.8,4.4v19.57c-2.49-.86-3.56-2-5.1-4l-12-15.16Z"></path><path d="M635.66,97.1a12.13,12.13,0,0,0-6.45-2c-4.81,0-8.16,3.52-8.16,8.57s3.49,9.67,8.87,9.67a15.47,15.47,0,0,0,7.42-2.18h.1l-1.78,4a12.46,12.46,0,0,1-5.26,1c-8.22,0-13.31-4.6-13.31-12,0-7.21,5.09-12,12.22-12a28.24,28.24,0,0,1,6.35.87Z"></path><path d="M662.52,11.7a9.29,9.29,0,0,1-2.84,6.81,9.61,9.61,0,0,1-13.62,0,9.28,9.28,0,0,1-2.83-6.81,9.28,9.28,0,0,1,2.83-6.8,9.58,9.58,0,0,1,13.62,0A9.28,9.28,0,0,1,662.52,11.7Zm-1.37,0a8,8,0,0,0-2.43-5.85,8.23,8.23,0,0,0-11.69,0,8,8,0,0,0-2.44,5.84A8,8,0,0,0,647,17.55a8.24,8.24,0,0,0,11.7,0A8,8,0,0,0,661.15,11.7Zm-3.73,5.61h-1.83l-2.16-4.78h-3.08v4.78h-1.66V6.1h4.74a3.84,3.84,0,0,1,2.88,1,3.08,3.08,0,0,1,1,2.19,3.22,3.22,0,0,1-.52,1.71,2.85,2.85,0,0,1-1.64,1.16Zm-7.07-6.09h2.91a2.26,2.26,0,0,0,1.69-.57,1.92,1.92,0,0,0,.56-1.4,1.55,1.55,0,0,0-.59-1.31,2.37,2.37,0,0,0-1.48-.45h-3.09Z"></path><path d="M71.89,46.21c-6-7.14-13.5-16.86-20.56-24.44C39.22,8.77,28.06,2.23,0,2.23V20.75c35.16-.7,52.45,10.34,65.32,23.79C82.11,62.08,75.9,76.58,130,75.88V57.45C91.83,57.45,80.13,56,71.89,46.21Z" fill="#007ac2"></path><path d="M58.64,70.2C43.45,48.21,25.54,44.52,0,44.38V62.9c42.75.35,59,17,68.47,26.63,13,13.33,24.8,28.6,61.5,28.6V99.66c-35.63-.25-45.44-.88-56-10C68.85,85.25,64.19,78.24,58.64,70.2Z" fill="#007ac2"></path><path d="M58.64,49.2C43.45,27.21,25.53,23.52,0,23.38V41.75c35.15-.7,52.44,10.34,65.31,23.79C82.11,83.08,75.9,97.58,130,96.88V78.66c-35.63-.25-45.44-.88-56-10C68.85,64.25,64.19,57.24,58.64,49.2Z" fill="#007ac2"></path></svg>